G04 EAGLE Gerber RS-274X export*
G75*
%MOMM*%
%FSLAX34Y34*%
%LPD*%
%INSolderpaste Top*%
%IPPOS*%
%AMOC8*
5,1,8,0,0,1.08239X$1,22.5*%
G01*
%ADD10R,0.550000X1.200000*%
%ADD11R,0.381000X1.397000*%
%ADD12R,0.400000X1.250000*%
%ADD13R,0.800000X1.200000*%
%ADD14R,1.200000X0.800000*%
%ADD15R,1.270000X0.635000*%
%ADD16R,2.286000X2.438400*%
%ADD17R,1.200000X1.200000*%
%ADD18R,1.000000X1.400000*%
%ADD19R,1.350000X0.400000*%


D10*
X377800Y432100D03*
X368300Y432100D03*
X358800Y432100D03*
X358800Y406100D03*
X377800Y406100D03*
X368300Y406100D03*
D11*
X244475Y274320D03*
X238125Y274320D03*
X231775Y274320D03*
X225425Y274320D03*
X219075Y274320D03*
X212725Y274320D03*
X206375Y274320D03*
X200025Y274320D03*
X200025Y220980D03*
X206375Y220980D03*
X212725Y220980D03*
X219075Y220980D03*
X225425Y220980D03*
X231775Y220980D03*
X238125Y220980D03*
X244475Y220980D03*
D12*
X408750Y103450D03*
X415250Y103450D03*
X421750Y103450D03*
X428250Y103450D03*
X434750Y103450D03*
X441250Y103450D03*
X447750Y103450D03*
X454250Y103450D03*
X460750Y103450D03*
X467250Y103450D03*
X473750Y103450D03*
X480250Y103450D03*
X467250Y175950D03*
X460750Y175950D03*
X454250Y175950D03*
X447750Y175950D03*
X441250Y175950D03*
X434750Y175950D03*
X428250Y175950D03*
X421750Y175950D03*
X415250Y175950D03*
X408750Y175950D03*
X473750Y175950D03*
X480250Y175950D03*
D13*
X238650Y179070D03*
X256650Y179070D03*
X256650Y160020D03*
X238650Y160020D03*
D14*
X120650Y251570D03*
X120650Y233570D03*
X120650Y219820D03*
X120650Y201820D03*
X76200Y266810D03*
X76200Y248810D03*
X95250Y233570D03*
X95250Y251570D03*
X95250Y219820D03*
X95250Y201820D03*
X210820Y312530D03*
X210820Y294530D03*
D13*
X218550Y176530D03*
X200550Y176530D03*
X218550Y195580D03*
X200550Y195580D03*
D15*
X241300Y417521D03*
X241300Y425759D03*
D16*
X241300Y421640D03*
D15*
X215900Y417521D03*
X215900Y425759D03*
D16*
X215900Y421640D03*
D13*
X492650Y223520D03*
X510650Y223520D03*
X492650Y203200D03*
X510650Y203200D03*
D14*
X438150Y200550D03*
X438150Y218550D03*
D13*
X338980Y93980D03*
X356980Y93980D03*
D14*
X230886Y59800D03*
X230886Y41800D03*
D13*
X356980Y119380D03*
X338980Y119380D03*
X356980Y144780D03*
X338980Y144780D03*
D14*
X339852Y422546D03*
X339852Y440546D03*
D13*
X397400Y406400D03*
X415400Y406400D03*
D17*
X571500Y442300D03*
X571500Y421300D03*
D14*
X546100Y422800D03*
X546100Y440800D03*
D18*
X546100Y404700D03*
X555600Y382700D03*
X536600Y382700D03*
D14*
X519430Y438260D03*
X519430Y420260D03*
D18*
X509270Y350950D03*
X499770Y372950D03*
X518770Y372950D03*
D13*
X500270Y393700D03*
X518270Y393700D03*
D14*
X520700Y334120D03*
X520700Y316120D03*
D17*
X571500Y328000D03*
X571500Y307000D03*
D14*
X546100Y326500D03*
X546100Y308500D03*
D18*
X546100Y290400D03*
X555600Y268400D03*
X536600Y268400D03*
D14*
X520700Y251350D03*
X520700Y269350D03*
D17*
X571500Y239100D03*
X571500Y218100D03*
D14*
X546100Y237600D03*
X546100Y219600D03*
D18*
X546100Y201500D03*
X555600Y179500D03*
X536600Y179500D03*
D14*
X520700Y162450D03*
X520700Y180450D03*
D17*
X571500Y150200D03*
X571500Y129200D03*
D14*
X546100Y148700D03*
X546100Y130700D03*
D18*
X546100Y118950D03*
X555600Y96950D03*
X536600Y96950D03*
D14*
X520700Y79900D03*
X520700Y97900D03*
X106680Y59800D03*
X106680Y41800D03*
D13*
X238650Y196088D03*
X256650Y196088D03*
D19*
X42986Y206710D03*
X42986Y213210D03*
X42986Y219710D03*
X42986Y226210D03*
X42986Y232710D03*
M02*
