G04 EAGLE Gerber RS-274X export*
G75*
%MOMM*%
%FSLAX34Y34*%
%LPD*%
%INSoldermask Bottom*%
%IPPOS*%
%AMOC8*
5,1,8,0,0,1.08239X$1,22.5*%
G01*
%ADD10R,1.500000X1.500000*%
%ADD11C,1.500000*%
%ADD12C,1.500000*%
%ADD13C,3.251200*%
%ADD14C,2.133600*%
%ADD15C,2.750000*%
%ADD16R,1.778000X1.778000*%
%ADD17C,1.778000*%
%ADD18C,6.400000*%
%ADD19C,1.524000*%
%ADD20R,2.032000X2.032000*%
%ADD21C,2.032000*%
%ADD22C,1.879600*%
%ADD23C,1.250000*%
%ADD24C,1.570000*%
%ADD25R,1.570000X1.570000*%
%ADD26R,1.879600X1.879600*%
%ADD27C,0.950000*%
%ADD28C,1.100000*%


D10*
X162560Y350520D03*
D11*
X162560Y325120D03*
X162560Y299720D03*
D12*
X143740Y426840D02*
X143740Y441840D01*
X83740Y441840D02*
X83740Y426840D01*
X106240Y387340D02*
X121240Y387340D01*
D13*
X393250Y308610D03*
D14*
X324250Y378610D03*
X349250Y378610D03*
X374250Y378610D03*
D13*
X305250Y308610D03*
D15*
X35000Y35000D03*
X35000Y525000D03*
X615000Y35000D03*
X615000Y525000D03*
D16*
X83700Y512300D03*
D17*
X83700Y537700D03*
X109100Y512300D03*
X109100Y537700D03*
X134500Y512300D03*
X134500Y537700D03*
X159900Y512300D03*
X159900Y537700D03*
X185300Y512300D03*
X185300Y537700D03*
X210700Y512300D03*
X210700Y537700D03*
X236100Y512300D03*
X236100Y537700D03*
X261500Y512300D03*
X261500Y537700D03*
X286900Y512300D03*
X286900Y537700D03*
X312300Y512300D03*
X312300Y537700D03*
X337700Y512300D03*
X337700Y537700D03*
X363100Y512300D03*
X363100Y537700D03*
X388500Y512300D03*
X388500Y537700D03*
X413900Y512300D03*
X413900Y537700D03*
X439300Y512300D03*
X439300Y537700D03*
X464700Y512300D03*
X464700Y537700D03*
X490100Y512300D03*
X490100Y537700D03*
X515500Y512300D03*
X515500Y537700D03*
X540900Y512300D03*
X540900Y537700D03*
X566300Y512300D03*
X566300Y537700D03*
D18*
X35000Y525000D03*
X615000Y525000D03*
X615000Y35000D03*
X35000Y35000D03*
D19*
X195326Y137922D02*
X195326Y153162D01*
X195326Y88138D02*
X195326Y72898D01*
X150114Y137922D02*
X150114Y153162D01*
X150114Y88138D02*
X150114Y72898D01*
X317246Y137922D02*
X317246Y153162D01*
X317246Y88138D02*
X317246Y72898D01*
X272034Y137922D02*
X272034Y153162D01*
X272034Y88138D02*
X272034Y72898D01*
D20*
X410972Y38100D03*
D21*
X449528Y38100D03*
D20*
X480822Y38100D03*
D21*
X519378Y38100D03*
D22*
X241300Y468630D03*
X215900Y471170D03*
X190500Y468630D03*
X264160Y45720D03*
X289560Y43180D03*
X314960Y45720D03*
X144780Y45720D03*
X170180Y43180D03*
X195580Y45720D03*
X307340Y471170D03*
X332740Y468630D03*
X358140Y471170D03*
X383540Y468630D03*
X408940Y471170D03*
X598170Y457200D03*
X595630Y431800D03*
X598170Y406400D03*
X598170Y355600D03*
X595630Y330200D03*
X598170Y304800D03*
X598170Y254000D03*
X595630Y228600D03*
X598170Y203200D03*
X598170Y152400D03*
X595630Y127000D03*
X598170Y101600D03*
D23*
X54610Y81280D03*
D24*
X29210Y102880D03*
X54610Y102880D03*
X80010Y102880D03*
D25*
X105410Y102880D03*
D22*
X86360Y181610D03*
X111760Y179070D03*
X137160Y181610D03*
D26*
X386588Y189484D03*
D22*
X361188Y186944D03*
X335788Y189484D03*
X310388Y186944D03*
D27*
X19736Y177960D02*
X10236Y177960D01*
X10236Y261460D02*
X19736Y261460D01*
D28*
X39486Y241960D02*
X50486Y241960D01*
X50486Y197460D02*
X39486Y197460D01*
M02*
