G04 EAGLE Gerber RS-274X export*
G75*
%MOMM*%
%FSLAX34Y34*%
%LPD*%
%INVias*%
%IPPOS*%
%AMOC8*
5,1,8,0,0,1.08239X$1,22.5*%
G01*
%ADD10C,0.654800*%
%ADD11C,0.754800*%


D10*
X196850Y374650D03*
X228600Y203200D03*
X260350Y215900D03*
X76200Y238760D03*
X568960Y274320D03*
X568960Y185420D03*
X568960Y96520D03*
X495300Y176530D03*
X516890Y236220D03*
X441198Y239268D03*
X543560Y363220D03*
X426720Y524510D03*
X502920Y524510D03*
X325120Y524510D03*
X261620Y448310D03*
X261620Y372110D03*
X330200Y66040D03*
X528320Y302260D03*
X140970Y214630D03*
X521970Y464820D03*
X375920Y448310D03*
X325120Y435610D03*
X474980Y210820D03*
X419100Y433070D03*
X364490Y292100D03*
X214630Y36830D03*
X57150Y285750D03*
X398780Y58420D03*
X252984Y284480D03*
X387350Y391160D03*
X406400Y160020D03*
X416560Y160020D03*
X406400Y121920D03*
X441960Y121920D03*
X480060Y121920D03*
X480060Y134620D03*
X467360Y134620D03*
X454660Y134620D03*
X441960Y134620D03*
X429260Y134620D03*
X416560Y134620D03*
X406400Y134620D03*
X406400Y147320D03*
X416560Y147320D03*
X429260Y147320D03*
X441960Y147320D03*
X454660Y147320D03*
X467360Y147320D03*
X480060Y147320D03*
X480060Y160020D03*
X467360Y160020D03*
X454660Y160020D03*
X441960Y160020D03*
X429260Y160020D03*
X323850Y261620D03*
X186690Y187960D03*
X66040Y157480D03*
X365760Y64770D03*
X302260Y209550D03*
X360680Y214630D03*
X416560Y121920D03*
X429260Y121920D03*
X454660Y121920D03*
X467360Y121920D03*
X464820Y86360D03*
X464820Y78740D03*
X424180Y86360D03*
X424180Y78740D03*
X406400Y228600D03*
X476250Y228600D03*
X483870Y228600D03*
X571500Y406400D03*
X571500Y114300D03*
X577850Y203200D03*
X577850Y285750D03*
X518160Y406400D03*
X424688Y406400D03*
X339852Y406654D03*
X297180Y406400D03*
X171450Y194310D03*
X438150Y190500D03*
D11*
X71120Y490220D03*
X70866Y481584D03*
D10*
X497840Y427990D03*
X419100Y450850D03*
X397510Y424434D03*
X495300Y311150D03*
X327660Y328930D03*
X224790Y303530D03*
X215900Y400050D03*
X148590Y266700D03*
X267970Y176530D03*
X179070Y201676D03*
X184150Y292100D03*
X190500Y304800D03*
X209550Y208280D03*
X501650Y247650D03*
X288290Y337820D03*
X287020Y241300D03*
X287020Y200660D03*
X29210Y278130D03*
X70358Y66802D03*
X33020Y124460D03*
X24638Y303276D03*
M02*
